<?xml version="1.0" encoding="UTF-8"?><svg id="Layer_2" xmlns="http://www.w3.org/2000/svg" viewBox="0 0 417.2 99.02"><defs><style>.cls-1{fill-rule:evenodd;}</style></defs><g id="Layer_1-2"><g><path class="cls-1" d="M67.62,41.24c1.91-5.07,4.62-9.39,8.14-12.96,3.51-3.57,7.73-6.33,12.66-8.29,4.92-1.96,10.44-2.94,16.57-2.94,6.13,0,11.68,.98,16.65,2.94,4.97,1.96,9.22,4.72,12.73,8.29,3.52,3.57,6.23,7.89,8.14,12.96,1.91,5.07,2.86,10.72,2.86,16.95s-.96,11.85-2.86,16.87c-1.91,5.02-4.62,9.32-8.14,12.88-3.52,3.57-7.76,6.31-12.73,8.21-4.97,1.91-10.52,2.86-16.65,2.86s-11.65-.95-16.57-2.86c-4.92-1.91-9.14-4.64-12.66-8.21-3.52-3.56-6.23-7.86-8.14-12.88-1.91-5.02-2.86-10.65-2.86-16.87s.95-11.88,2.86-16.95m19.44,26.07c.6,2.96,1.63,5.63,3.09,7.98,1.45,2.36,3.39,4.24,5.8,5.65,2.41,1.41,5.43,2.11,9.04,2.11s6.65-.7,9.12-2.11c2.46-1.41,4.42-3.29,5.88-5.65,1.46-2.36,2.49-5.02,3.09-7.98,.6-2.96,.91-6,.91-9.12,0-3.11-.3-6.18-.91-9.19-.6-3.01-1.63-5.68-3.09-7.99-1.46-2.31-3.42-4.19-5.88-5.65-2.46-1.45-5.5-2.18-9.12-2.18-3.62,0-6.63,.73-9.04,2.18-2.41,1.46-4.34,3.34-5.8,5.65-1.46,2.31-2.49,4.97-3.09,7.99-.6,3.01-.9,6.08-.9,9.19s.3,6.15,.9,9.12Z"/><path class="cls-1" d="M149.18,0V97.07h21.4V56.23c0-7.93,1.3-13.64,3.92-17.1,2.61-3.47,6.83-5.2,12.66-5.2,5.12,0,8.69,1.58,10.7,4.74,2.01,3.17,3.01,7.96,3.01,14.39v44h21.4V49.15c0-4.82-.43-9.21-1.28-13.18-.85-3.97-2.34-7.33-4.45-10.09-2.11-2.76-5-4.92-8.67-6.48-3.67-1.56-8.36-2.34-14.08-2.34-4.02,0-8.14,1.03-12.35,3.09-4.22,2.06-7.68,5.35-10.4,9.87h-.45V0h-21.4Z"/><polygon class="cls-1" points="0 97.07 21.4 97.07 21.4 70.24 29.68 62.26 51.08 97.07 77 97.07 44.3 47.8 73.68 19.17 48.36 19.17 21.4 47.19 21.4 0 0 0 0 97.07"/><path class="cls-1" d="M417.2,19.17v14.31h-15.67v38.57c0,3.62,.6,6.03,1.81,7.23,1.21,1.21,3.62,1.81,7.23,1.81,1.21,0,2.36-.05,3.46-.15,1.11-.1,2.16-.25,3.17-.45v16.57c-1.81,.3-3.82,.5-6.03,.6-2.21,.1-4.37,.15-6.48,.15-3.31,0-6.46-.23-9.42-.68-2.97-.45-5.58-1.33-7.83-2.64-2.26-1.31-4.05-3.17-5.35-5.57-1.31-2.41-1.96-5.58-1.96-9.49V0h21.39V19.17h15.67Z"/><path class="cls-1" d="M375.1,62.94c-1.41-2.46-3.26-4.52-5.58-6.18-2.31-1.66-4.95-2.99-7.91-3.99-2.96-1-6-1.86-9.12-2.56-3.01-.7-5.97-1.36-8.89-1.96-2.92-.6-5.5-1.28-7.76-2.03-2.26-.75-4.09-1.73-5.5-2.94-1.41-1.21-2.11-2.76-2.11-4.67,0-1.61,.4-2.89,1.21-3.84,.8-.95,1.78-1.68,2.94-2.19,1.15-.5,2.44-.83,3.84-.98,1.41-.15,2.71-.22,3.92-.22,3.81,0,7.13,.73,9.94,2.18,2.81,1.46,4.37,4.25,4.67,8.36h20.34c-.4-4.82-1.63-8.82-3.69-11.98-2.06-3.16-4.65-5.7-7.76-7.61-3.11-1.91-6.65-3.26-10.62-4.07-3.97-.8-8.06-1.21-12.28-1.21-4.22,0-8.34,.38-12.36,1.13-4.02,.75-7.64,2.06-10.85,3.92-3.22,1.86-5.8,4.4-7.76,7.61-1.96,3.22-2.94,7.33-2.94,12.35,0,3.42,.7,6.3,2.11,8.67,1.41,2.36,3.26,4.32,5.57,5.87,2.31,1.56,4.95,2.81,7.91,3.77,2.96,.96,6,1.78,9.11,2.49,7.64,1.61,13.59,3.22,17.86,4.82,4.27,1.61,6.4,4.02,6.4,7.23,0,1.91-.45,3.49-1.35,4.75-.9,1.26-2.04,2.26-3.39,3.01-1.36,.75-2.86,1.31-4.52,1.66-1.66,.35-3.24,.53-4.75,.53-2.11,0-4.14-.25-6.1-.75-1.96-.5-3.69-1.28-5.2-2.33-1.5-1.05-2.74-2.41-3.69-4.07-.82-1.43-1.27-3.11-1.38-5.01h-20.31c.3,4.79,1.43,8.85,3.46,12.1,2.16,3.47,4.92,6.25,8.29,8.36,3.36,2.11,7.21,3.62,11.53,4.52,4.32,.9,8.74,1.35,13.26,1.35s8.76-.43,13.03-1.28c4.27-.85,8.06-2.33,11.38-4.45,3.31-2.11,6-4.89,8.06-8.36,2.06-3.46,3.09-7.76,3.09-12.88,0-3.62-.7-6.65-2.11-9.11"/><path class="cls-1" d="M302.66,41.39c-1.91-5.07-4.62-9.39-8.13-12.96-3.52-3.56-7.76-6.33-12.73-8.29-4.04-1.59-8.47-2.52-13.27-2.82v-3.35h5.3v-5.08c0-2.13-1.73-3.87-3.86-3.87h-9.48c-2.13,0-3.87,1.73-3.87,3.87v5.08h5.31v3.34c-4.85,.29-9.31,1.23-13.35,2.83-4.92,1.96-9.14,4.72-12.66,8.29-3.52,3.57-6.23,7.89-8.14,12.96-1.91,5.07-2.86,10.72-2.86,16.95,0,.36,.04,.7,.04,1.05h4.59c8.43,0,15.89-5.42,18.51-13.43,.95-2.9,1.99-4.4,2.25-4.81,1.46-2.31,3.39-4.19,5.8-5.65,2.41-1.46,5.42-2.19,9.04-2.19s6.65,.73,9.12,2.19c2.46,1.46,4.42,3.34,5.87,5.65,.47,.74,1.41,2.27,2.26,4.84,2.63,7.98,10.09,13.39,18.5,13.39h4.6c0-.36,.04-.7,.04-1.05,0-6.23-.96-11.88-2.87-16.95Z"/></g></g></svg>