<?xml version="1.0" encoding="UTF-8"?><svg id="Layer_2" xmlns="http://www.w3.org/2000/svg" viewBox="0 0 75.77 76.25"><defs><style>.cls-12{fill:transparent;}.cls-222{fill:#fff;fill-rule:evenodd;}</style></defs><g id="svg3070"><g id="layer1"><g id="g3019"><path id="path14" class="cls-12" d="M0,5.46C0,2.45,2.51,0,5.6,0H70.17c3.09,0,5.6,2.45,5.6,5.46V70.79c0,3.02-2.51,5.46-5.6,5.46H5.6c-3.09,0-5.6-2.45-5.6-5.46V5.46Z"/><path id="path28" class="cls-222" d="M22.97,63.83V29.4H11.52V63.83h11.44Zm-5.72-39.13c3.99,0,6.47-2.64,6.47-5.95-.07-3.38-2.48-5.95-6.4-5.95s-6.47,2.57-6.47,5.95,2.48,5.95,6.32,5.95h.07Z"/><path id="path30" class="cls-222" d="M29.3,63.83h11.44v-19.23c0-1.03,.07-2.06,.38-2.79,.83-2.06,2.71-4.19,5.87-4.19,4.14,0,5.8,3.16,5.8,7.79v18.42h11.44v-19.74c0-10.58-5.65-15.5-13.18-15.5-6.17,0-8.88,3.45-10.39,5.8h.08v-4.99h-11.44c.15,3.23,0,34.43,0,34.43h0Z"/></g></g></g></svg>