<?xml version="1.0" encoding="UTF-8"?><svg id="Layer_1" xmlns="http://www.w3.org/2000/svg" viewBox="0 0 300.67 48.88"><defs><style>.cls-1,.cls-2,.cls-3{stroke-miterlimit:10;stroke-width:.2px;}.cls-1,.cls-3{fill:#ffffff;stroke:#ffffff;}.cls-2{fill:#ffffff;stroke:#ffffff;}.cls-3{fill-rule:evenodd;}</style></defs><path class="cls-3" d="M7.47,40.99C-1.54,29.84-.02,13.33,10.85,4.11c1.21-1.03,2.49-1.92,3.82-2.68l1.7,3.35c-1.1,.64-2.16,1.39-3.17,2.24C3.89,14.91,2.59,29.04,10.31,38.58c1.98,2.45,4.37,4.36,6.98,5.71l-1.45,3.47c-3.13-1.58-5.99-3.85-8.36-6.78h0Z"/><path class="cls-3" d="M14.31,36.18c-6.42-7.94-5.34-19.7,2.41-26.27,.8-.68,1.65-1.28,2.52-1.8l1.7,3.35c-.65,.39-1.28,.84-1.88,1.35-6.18,5.24-7.04,14.62-1.92,20.96,1.21,1.5,2.65,2.69,4.22,3.57l-1.46,3.48c-2.09-1.12-4-2.67-5.6-4.64h0Z"/><path class="cls-3" d="M21.15,31.37c-3.82-4.73-3.18-11.74,1.44-15.65,.4-.34,.81-.64,1.24-.91l1.71,3.36c-.2,.14-.4,.29-.6,.46-3.05,2.59-3.48,7.22-.95,10.34,.44,.54,.94,1,1.48,1.38l-1.47,3.51c-1.05-.64-2.02-1.47-2.84-2.49h0Z"/><g><path class="cls-1" d="M37.84,36.02h-4.05V12.78h3.13l.6,3.51c1.01-1.09,2.1-1.95,3.27-2.6,1.17-.64,2.56-.96,4.19-.96,1.53,0,2.79,.34,3.77,1.02,.98,.68,1.72,1.61,2.21,2.8,1.07-1.22,2.25-2.17,3.54-2.83,1.29-.66,2.71-.99,4.28-.99,2.21,0,3.87,.66,4.99,1.98,1.12,1.32,1.68,3.15,1.68,5.5v15.83h-4.05v-15.01c0-1.53-.31-2.7-.92-3.51-.61-.81-1.63-1.22-3.04-1.22-2.09,0-4.03,.99-5.84,2.97,.03,.16,.05,.33,.05,.49v16.28h-4.05v-15.01c0-1.53-.31-2.7-.92-3.51-.61-.81-1.63-1.22-3.04-1.22-2.09,0-4.02,1.04-5.8,3.13v16.6Z"/><path class="cls-1" d="M83.15,12.78h4.32l-8.05,23.25h-3.96l-8.14-23.25h4.37l4.88,15.98,.83,3.66h.18l.78-3.61,4.78-16.03Z"/><path class="cls-1" d="M108.18,24.5h-15.5v.2c0,2.57,.65,4.55,1.95,5.94,1.3,1.39,3.07,2.08,5.31,2.08,1.17,0,2.2-.1,3.11-.3,.9-.2,1.89-.53,2.97-.99l.83,3.22c-.89,.43-1.94,.78-3.15,1.04-1.21,.26-2.51,.4-3.89,.4-1.56,0-3.03-.22-4.39-.67-1.37-.45-2.57-1.14-3.61-2.09-1.04-.95-1.86-2.15-2.46-3.63-.6-1.47-.9-3.23-.9-5.28,0-1.76,.25-3.36,.76-4.81,.51-1.44,1.22-2.67,2.14-3.67s2.03-1.79,3.34-2.35c1.3-.56,2.77-.84,4.39-.84,1.38,0,2.63,.23,3.75,.7,1.12,.47,2.08,1.12,2.88,1.96,.8,.84,1.41,1.85,1.84,3.04s.64,2.49,.64,3.93v2.15Zm-4.19-3.07c0-.77-.1-1.49-.3-2.15-.2-.66-.51-1.25-.92-1.75-.41-.5-.94-.9-1.59-1.2-.64-.29-1.43-.44-2.35-.44-1.69,0-3.06,.51-4.12,1.53-1.06,1.02-1.71,2.36-1.95,4.01h11.22Z"/><path class="cls-1" d="M124.42,17.48c-1.01-.53-1.93-.89-2.76-1.09-.83-.2-1.66-.3-2.48-.3-1.47,0-2.56,.28-3.27,.83-.71,.56-1.06,1.3-1.06,2.22,0,.67,.25,1.25,.74,1.74,.49,.49,1.52,.98,3.08,1.46l1.38,.43c2.05,.64,3.61,1.45,4.67,2.46,1.06,1,1.59,2.36,1.59,4.08,0,2.04-.73,3.67-2.19,4.91s-3.49,1.86-6.1,1.86c-1.38,0-2.71-.13-3.98-.4-1.27-.26-2.37-.63-3.29-1.09l.97-3.34c.89,.44,1.86,.79,2.9,1.06,1.04,.27,2.1,.4,3.17,.4,1.38,0,2.48-.25,3.29-.76,.81-.51,1.22-1.35,1.22-2.53,0-1.02-.35-1.74-1.06-2.18-.71-.43-1.72-.85-3.04-1.27l-1.43-.48c-1.99-.67-3.47-1.51-4.44-2.51-.97-1-1.45-2.3-1.45-3.9,0-.96,.2-1.83,.6-2.63s.94-1.47,1.63-2.01c.69-.54,1.51-.96,2.46-1.27,.95-.3,1.99-.45,3.13-.45,1.07,0,2.18,.11,3.33,.33,1.15,.22,2.25,.59,3.29,1.1l-.92,3.32Z"/><path class="cls-1" d="M141.9,16.04h-6.35v13.5c0,1.15,.27,1.93,.8,2.33,.54,.4,1.23,.59,2.09,.59,.61,0,1.29-.07,2.02-.22,.74-.15,1.38-.32,1.93-.52l.64,3.31c-.61,.26-1.4,.49-2.35,.69-.95,.2-1.95,.3-2.99,.3-2.15,0-3.71-.5-4.69-1.51-.98-1.01-1.47-2.46-1.47-4.38v-14.1h-3.22v-3.27h3.22V5.36h4v7.42h6.35v3.27Z"/><path class="cls-1" d="M166.09,24.11c0,1.89-.28,3.58-.83,5.07-.55,1.49-1.31,2.75-2.28,3.77-.97,1.03-2.09,1.8-3.38,2.33s-2.68,.79-4.19,.79-2.89-.25-4.16-.74c-1.27-.5-2.38-1.23-3.31-2.21-.94-.98-1.67-2.18-2.21-3.6-.54-1.42-.8-3.07-.8-4.92s.28-3.57,.83-5.04c.55-1.47,1.31-2.71,2.28-3.72s2.09-1.78,3.38-2.31c1.29-.53,2.68-.79,4.19-.79s2.89,.24,4.16,.72c1.27,.48,2.38,1.2,3.31,2.16,.93,.96,1.67,2.15,2.21,3.58,.54,1.42,.8,3.07,.8,4.92Zm-4.23,.24c0-1.49-.18-2.75-.55-3.8-.37-1.05-.85-1.9-1.45-2.57s-1.28-1.15-2.05-1.45c-.77-.3-1.55-.45-2.35-.45s-1.58,.13-2.35,.38c-.77,.25-1.44,.7-2.02,1.33-.58,.63-1.05,1.48-1.4,2.54-.35,1.06-.53,2.4-.53,4.01,0,1.49,.18,2.76,.55,3.82s.85,1.92,1.45,2.59,1.28,1.16,2.05,1.47c.77,.32,1.55,.47,2.35,.47s1.58-.14,2.35-.4c.77-.27,1.44-.73,2.02-1.38,.58-.65,1.05-1.5,1.4-2.56s.53-2.4,.53-4.01Z"/><path class="cls-1" d="M170,36.02V12.78h3.04l.69,4.94c.52-1.48,1.38-2.68,2.58-3.61,1.2-.92,2.58-1.38,4.14-1.38,.8,0,1.46,.04,1.98,.13,.52,.09,1,.19,1.43,.32l-.78,4.05c-.37-.2-.77-.36-1.22-.5-.44-.13-.97-.2-1.59-.2-.89,0-1.71,.16-2.46,.49s-1.41,.81-1.98,1.46c-.57,.65-1.01,1.45-1.33,2.41-.32,.96-.48,2.06-.48,3.29v11.84h-4Z"/><path class="cls-2" d="M191.72,36.02h-4.05V12.78h3.13l.6,3.51c1.01-1.09,2.1-1.95,3.27-2.6,1.17-.64,2.56-.96,4.19-.96,1.53,0,2.79,.34,3.77,1.02,.98,.68,1.72,1.61,2.21,2.8,1.07-1.22,2.25-2.17,3.54-2.83,1.29-.66,2.71-.99,4.28-.99,2.21,0,3.87,.66,4.99,1.98,1.12,1.32,1.68,3.15,1.68,5.5v15.83h-4.05v-15.01c0-1.53-.31-2.7-.92-3.51-.61-.81-1.63-1.22-3.04-1.22-2.09,0-4.03,.99-5.84,2.97,.03,.16,.05,.33,.05,.49v16.28h-4.05v-15.01c0-1.53-.31-2.7-.92-3.51-.61-.81-1.62-1.22-3.04-1.22-2.09,0-4.02,1.04-5.8,3.13v16.6Z"/><path class="cls-2" d="M243.06,24.5h-15.5v.2c0,2.57,.65,4.55,1.96,5.94s3.07,2.08,5.31,2.08c1.17,0,2.2-.1,3.1-.3s1.89-.53,2.97-.99l.83,3.22c-.89,.43-1.94,.78-3.15,1.04-1.21,.26-2.51,.4-3.89,.4-1.56,0-3.03-.22-4.39-.67-1.37-.45-2.57-1.14-3.61-2.09s-1.86-2.15-2.46-3.63c-.6-1.47-.9-3.23-.9-5.28,0-1.76,.25-3.36,.76-4.81,.51-1.44,1.22-2.67,2.14-3.67,.92-1.01,2.03-1.79,3.33-2.35s2.77-.84,4.39-.84c1.38,0,2.63,.23,3.75,.7,1.12,.47,2.08,1.12,2.88,1.96,.8,.84,1.41,1.85,1.84,3.04,.43,1.18,.64,2.49,.64,3.93v2.15Zm-4.19-3.07c0-.77-.1-1.49-.3-2.15-.2-.66-.51-1.25-.92-1.75-.41-.5-.94-.9-1.59-1.2-.64-.29-1.43-.44-2.35-.44-1.69,0-3.06,.51-4.12,1.53-1.06,1.02-1.71,2.36-1.96,4.01h11.23Z"/><path class="cls-2" d="M261.51,1.15h4.05V36.02h-3.4l-.51-2.92h-.14c-.95,1.04-1.91,1.79-2.88,2.27-.97,.47-2.18,.71-3.66,.71-1.17,0-2.29-.24-3.38-.72s-2.06-1.2-2.92-2.16c-.86-.96-1.55-2.17-2.07-3.63-.52-1.46-.78-3.18-.78-5.16,0-1.76,.22-3.36,.67-4.81,.44-1.44,1.08-2.67,1.91-3.7,.83-1.02,1.84-1.81,3.04-2.35,1.2-.54,2.56-.82,4.09-.82,1.13,0,2.22,.19,3.24,.58,1.03,.39,1.94,.97,2.74,1.74V1.15Zm0,17.51c-1.44-1.71-3.14-2.57-5.11-2.57-.83,0-1.63,.15-2.42,.45-.78,.3-1.47,.78-2.07,1.44s-1.08,1.51-1.45,2.56c-.37,1.04-.55,2.29-.55,3.74s.17,2.8,.51,3.86c.34,1.06,.79,1.93,1.36,2.61,.57,.68,1.21,1.18,1.93,1.49s1.45,.47,2.19,.47c2.3,0,4.17-1.02,5.61-3.06v-10.99Z"/><path class="cls-2" d="M273.1,6.54c-.71,0-1.31-.26-1.82-.77-.51-.51-.76-1.15-.76-1.9s.25-1.4,.76-1.93c.51-.53,1.11-.79,1.82-.79s1.27,.26,1.79,.79c.52,.53,.78,1.17,.78,1.93s-.26,1.39-.78,1.9-1.12,.77-1.79,.77Zm-2.02,29.48V12.78h4.05v23.25h-4.05Z"/><path class="cls-2" d="M280.83,15.15c.74-.4,1.43-.75,2.07-1.06,.64-.31,1.29-.57,1.93-.77,.64-.2,1.3-.35,1.98-.45,.67-.1,1.41-.15,2.21-.15,1.2,0,2.29,.14,3.29,.41,1,.28,1.85,.74,2.58,1.39,.72,.65,1.28,1.51,1.68,2.56,.4,1.06,.6,2.39,.6,3.98v14.95h-3.36l-.51-2.94h-.09c-.95,1.08-1.99,1.85-3.13,2.3-1.13,.46-2.39,.69-3.77,.69-1.04,0-2-.16-2.88-.47-.87-.31-1.63-.76-2.28-1.34-.64-.58-1.14-1.28-1.5-2.1s-.53-1.75-.53-2.77c0-2.44,.9-4.3,2.69-5.57,1.79-1.27,4.16-1.9,7.11-1.9h4.14v-1.76c0-1.5-.4-2.52-1.2-3.06s-1.87-.82-3.22-.82c-.8,0-1.71,.13-2.74,.37-1.03,.25-2.2,.73-3.52,1.43l-1.56-2.94Zm12.28,9.84h-3.4c-2.3,0-3.93,.41-4.9,1.23-.97,.82-1.45,1.81-1.45,2.98,0,.7,.11,1.3,.32,1.78s.5,.86,.85,1.13c.35,.27,.77,.46,1.24,.58,.47,.12,.97,.18,1.49,.18,1.01,0,2.04-.26,3.08-.77,1.04-.51,1.96-1.33,2.76-2.45v-4.65Z"/></g></svg>